HIERARCHY
ROOT Hips
{
	OFFSET 0.000000 0.000000 0.000000
	CHANNELS 6 Xposition Yposition Zposition Xrotation Yrotation Zrotation
	JOINT LeftUpLeg_virtual
	{
		OFFSET 0.000000 0.000000 0.000000
		CHANNELS 3 Xrotation Yrotation Zrotation
		JOINT LeftUpLeg
		{
			OFFSET 11.394100 -6.187798 -0.413800
			CHANNELS 3 Xrotation Yrotation Zrotation
			JOINT LeftLeg
			{
				OFFSET 0.430247 -32.302673 3.732800
				CHANNELS 3 Xrotation Yrotation Zrotation
				JOINT LeftFoot
				{
					OFFSET -0.430247 -48.264931 -6.423300
					CHANNELS 3 Xrotation Yrotation Zrotation
					JOINT LeftToeBase
					{
						OFFSET 4.230900 -16.068199 23.438400
						CHANNELS 3 Xrotation Yrotation Zrotation
						JOINT LeftToe_End
						{
							OFFSET 4.510700 0.695400 19.974600
							CHANNELS 3 Xrotation Yrotation Zrotation
							End Site
							{
								OFFSET 0 0 0
							}
						}
					}
				}
			}
		}
	}
	JOINT RightUpLeg_virtual
	{
		OFFSET 0.000000 0.000000 0.000000
		CHANNELS 3 Xrotation Yrotation Zrotation
		JOINT RightUpLeg
		{
			OFFSET -11.333700 -6.187798 -0.413800
			CHANNELS 3 Xrotation Yrotation Zrotation
			JOINT RightLeg
			{
				OFFSET -0.430392 -32.302628 3.733000
				CHANNELS 3 Xrotation Yrotation Zrotation
				JOINT RightFoot
				{
					OFFSET 0.430392 -48.264973 -6.423500
					CHANNELS 3 Xrotation Yrotation Zrotation
					JOINT RightToeBase
					{
						OFFSET -4.230900 -16.068199 23.438400
						CHANNELS 3 Xrotation Yrotation Zrotation
						JOINT RightToe_End
						{
							OFFSET -4.510700 0.695400 19.974600
							CHANNELS 3 Xrotation Yrotation Zrotation
							End Site
							{
								OFFSET 0 0 0
							}
						}
					}
				}
			}
		}
	}
	JOINT Spine_virtual
	{
		OFFSET 0.000000 0.000000 0.000000
		CHANNELS 3 Xrotation Yrotation Zrotation
		JOINT Spine
		{
			OFFSET -0.002400 12.777504 0.315300
			CHANNELS 3 Xrotation Yrotation Zrotation
			JOINT Spine1
			{
				OFFSET -0.002067 5.816869 0.032633
				CHANNELS 3 Xrotation Yrotation Zrotation
				JOINT Spine1_split
				{
					OFFSET -0.002067 5.816869 0.032633
					CHANNELS 3 Xrotation Yrotation Zrotation
					JOINT Spine2
					{
						OFFSET -0.002067 5.816869 0.032633
						CHANNELS 3 Xrotation Yrotation Zrotation
						JOINT Neck_virtual
						{
							OFFSET 0.000000 0.000000 0.000000
							CHANNELS 3 Xrotation Yrotation Zrotation
							JOINT Neck
							{
								OFFSET -0.003700 21.199493 -0.826900
								CHANNELS 3 Xrotation Yrotation Zrotation
								JOINT Head
								{
									OFFSET 0.000000 20.442200 4.834800
									CHANNELS 3 Xrotation Yrotation Zrotation
									JOINT HeadTop_End
									{
										OFFSET 0.000000 34.668396 4.968400
										CHANNELS 3 Xrotation Yrotation Zrotation
										End Site
										{
											OFFSET 0 0 0
										}
									}
								}
							}
						}
						JOINT LeftShoulder_virtual
						{
							OFFSET 0.000000 0.000000 0.000000
							CHANNELS 3 Xrotation Yrotation Zrotation
							JOINT LeftShoulder
							{
								OFFSET 3.288150 8.794197 -1.372250
								CHANNELS 3 Xrotation Yrotation Zrotation
								JOINT LeftShoulder_split
								{
									OFFSET 3.288150 8.794197 -1.372250
									CHANNELS 3 Xrotation Yrotation Zrotation
									JOINT LeftArm
									{
										OFFSET 11.953299 -2.279007 -0.146200
										CHANNELS 3 Xrotation Yrotation Zrotation
										JOINT LeftForeArm
										{
											OFFSET 18.448900 0.000000 0.000000
											CHANNELS 3 Xrotation Yrotation Zrotation
											JOINT LeftHand
											{
												OFFSET 29.527798 0.000000 0.000000
												CHANNELS 3 Xrotation Yrotation Zrotation
												End Site
												{
													OFFSET 0 0 0
												}
											}
										}
									}
								}
							}
						}
						JOINT RightShoulder_virtual
						{
							OFFSET 0.000000 0.000000 0.000000
							CHANNELS 3 Xrotation Yrotation Zrotation
							JOINT RightShoulder
							{
								OFFSET -3.249400 8.794197 -1.372250
								CHANNELS 3 Xrotation Yrotation Zrotation
								JOINT RightShoulder_split
								{
									OFFSET -3.249400 8.794197 -1.372250
									CHANNELS 3 Xrotation Yrotation Zrotation
									JOINT RightArm
									{
										OFFSET -11.953299 -2.279007 -0.146200
										CHANNELS 3 Xrotation Yrotation Zrotation
										JOINT RightForeArm
										{
											OFFSET -18.448900 0.000000 0.000000
											CHANNELS 3 Xrotation Yrotation Zrotation
											JOINT RightHand
											{
												OFFSET -29.527802 0.000000 0.000000
												CHANNELS 3 Xrotation Yrotation Zrotation
												End Site
												{
													OFFSET 0 0 0
												}
											}
										}
									}
								}
							}
						}
					}
				}
			}
		}
	}
}
MOTION
Frames: 10
Frame Time: 0.03333333
3.262003 82.447388 5.103817 0.000000 0.000000 0.000000 5.049967 -37.783473 3.776417 -64.952374 1.604531 19.193194 28.636577 -15.897294 3.039149 15.171435 -6.727960 -19.035117 -5.483683 -0.107579 0.005116 0.000000 0.000000 0.000000 1.763835 -34.130216 2.922718 -21.093318 -15.452519 -36.388844 26.550696 -6.722013 0.263167 -13.286504 -12.088176 35.332692 2.638372 -2.948064 2.560881 0.000000 0.000000 0.000000 2.869984 -37.276147 2.599129 21.165474 -1.965278 -5.192404 5.575189 -1.951862 1.380394 3.677959 -14.086604 4.996766 0.000000 0.000000 0.000000 6.364273 -0.994754 -0.680010 16.329505 12.098186 14.655580 -32.584941 29.726141 19.891886 0.000000 0.000000 0.000000 7.565454 -1.564006 0.083065 -1.203071 -11.951116 -18.984412 -1.543731 -1.750527 -1.504205 -38.068087 31.156611 -14.415763 3.919615 -17.700592 -5.233515 0.000000 0.000000 0.000000 5.964718 -1.174648 0.104546 -0.184900 -14.889891 23.625045 -13.352825 -5.059489 -0.365348 18.640932 15.316387 33.864969 3.815058 51.512361 9.575795 0.000000 0.000000 0.000000 
1.252920 82.723412 5.234241 0.000000 0.000000 0.000000 5.538171 -34.372633 3.909661 -64.980958 5.358709 19.951351 28.236477 -18.035065 2.383552 19.792459 -9.055367 -18.114848 -7.755304 -0.460309 1.496895 0.000000 0.000000 0.000000 1.820139 -30.219106 3.323472 -17.171068 -14.269787 -31.438671 31.105327 -7.590363 0.477515 -15.422478 -11.681080 30.978552 3.036504 -2.450891 4.148055 0.000000 0.000000 0.000000 1.397683 -33.942809 3.184722 19.407011 -1.646522 -5.472736 5.671340 -1.387592 1.688010 3.681525 -8.472999 4.727016 0.000000 0.000000 0.000000 5.107448 -0.682810 -0.438682 19.040710 11.325662 13.172587 -30.471578 28.143308 19.851323 0.000000 0.000000 0.000000 6.899358 -0.923323 0.239992 -0.679898 -9.254419 -19.206851 -0.503314 -0.693348 -0.391974 -41.058091 30.394922 -13.388986 2.385314 -24.845009 -5.886668 0.000000 0.000000 0.000000 5.530957 -0.690379 0.154947 -1.218511 -11.863711 23.936355 -13.838220 -1.366777 0.425634 16.920315 17.027515 35.141801 4.849765 51.198446 9.137888 0.000000 0.000000 0.000000 
-1.764845 82.914948 5.494839 0.000000 0.000000 0.000000 5.156830 -25.504445 4.631580 -63.515514 10.685675 18.595627 24.246328 -20.018499 0.874219 28.306764 -12.264184 -15.729328 -10.200174 -1.224235 4.859540 0.000000 0.000000 0.000000 1.635070 -21.602106 4.335846 -10.696000 -11.964995 -24.752650 38.313359 -6.369317 0.251522 -12.670391 -7.579107 30.488250 -12.315929 -1.879744 3.096205 0.000000 0.000000 0.000000 0.313977 -25.338194 4.415873 16.498179 -0.605787 -5.365353 4.754066 0.110351 2.546314 4.121882 -5.551632 3.480393 0.000000 0.000000 0.000000 3.002673 0.753778 0.547326 23.645145 10.220529 10.868609 -23.494702 24.244622 17.324269 0.000000 0.000000 0.000000 5.254082 0.917545 1.165366 -0.035420 -5.272783 -18.492894 0.329011 0.237462 0.513678 -39.480597 26.730487 -13.959713 4.114458 -34.875110 -3.697468 0.000000 0.000000 0.000000 4.211105 1.010418 0.981581 -1.912535 -8.677297 25.048563 -12.772291 0.393357 -0.250379 15.117457 18.170554 34.520418 9.482866 49.355101 5.975363 0.000000 0.000000 0.000000 
-5.048825 83.055984 5.983288 0.000000 0.000000 0.000000 3.851967 -13.402615 5.781778 -60.048803 16.190685 14.893436 17.721821 -20.644114 -0.842014 37.877798 -13.694273 -11.516764 -11.662315 -2.023754 8.177865 0.000000 0.000000 0.000000 1.233188 -9.809209 5.746882 -1.990679 -8.688519 -17.267939 43.758830 -4.056663 -0.866293 -8.048394 -1.000103 30.967897 -37.244506 -0.600520 1.116079 0.000000 0.000000 0.000000 -0.722378 -13.439431 6.113540 12.901553 0.997101 -4.784653 2.949528 2.300610 3.654253 4.234960 -3.923414 1.886125 0.000000 0.000000 0.000000 0.371804 3.014304 1.969594 28.588213 9.308209 8.152555 -14.133975 18.478940 13.781729 0.000000 0.000000 0.000000 2.872647 3.515629 2.404043 0.442695 -0.805527 -17.047269 1.241822 1.136500 1.377935 -35.443757 19.323375 -15.247223 8.764048 -40.985213 1.560775 0.000000 0.000000 0.000000 2.197831 3.554614 2.224210 -2.267076 -5.894281 26.288660 -10.381079 -0.189292 -1.415972 14.345276 17.626338 31.665833 16.012467 45.334209 1.530614 0.000000 0.000000 0.000000 
-8.193491 83.329987 6.164387 0.000000 0.000000 0.000000 1.747177 -0.347014 7.485280 -54.506812 20.288688 8.872947 10.012251 -20.239669 -1.875655 45.310949 -12.551239 -6.914396 -12.609466 -2.471421 10.161778 0.000000 0.000000 0.000000 -0.230108 3.004584 7.143457 7.462717 -5.466305 -9.885871 45.358398 -2.894050 -2.116849 -3.004086 5.644607 27.703765 -56.050523 1.414492 0.161058 0.000000 0.000000 0.000000 -1.946740 0.201736 7.934865 9.185827 2.946890 -3.690101 0.537429 4.789744 4.635180 1.895499 -3.263120 0.258635 0.000000 0.000000 0.000000 -2.072520 5.605213 3.351132 32.226625 8.687152 4.928667 -5.415577 11.522323 10.531752 0.000000 0.000000 0.000000 0.209438 6.315411 3.520125 0.669144 3.748856 -14.897524 2.104516 2.337323 1.452566 -31.674244 8.047279 -15.044540 12.304181 -39.855158 6.904059 0.000000 0.000000 0.000000 -0.182270 6.397473 3.487014 -2.302844 -3.371233 27.197168 -7.355095 -1.090572 -2.048268 14.794485 15.214325 27.682958 22.399011 39.550385 -2.518416 0.000000 0.000000 0.000000 
-10.770340 83.782196 5.890526 0.000000 0.000000 0.000000 -1.334018 11.468048 9.549975 -47.673863 21.263718 1.487198 2.687342 -19.871255 -1.565153 48.988255 -9.760625 -3.050468 -13.877031 -2.552494 10.635514 0.000000 0.000000 0.000000 -2.533275 14.114786 8.732988 14.684750 -3.340519 -3.638359 42.603230 -3.816632 -2.467062 2.878273 10.057960 20.309996 -63.694670 3.365641 0.160635 0.000000 0.000000 0.000000 -3.347566 12.612328 9.511615 6.067564 4.877722 -2.315718 -2.121942 7.192800 5.153434 -0.943457 -3.939646 -0.872850 0.000000 0.000000 0.000000 -3.887898 8.132927 4.248335 33.420857 8.804897 1.140880 0.627591 4.696149 7.825682 0.000000 0.000000 0.000000 -2.213873 8.852816 4.161941 0.536769 7.921092 -12.176062 1.797730 4.024356 0.441486 -30.698797 -3.018646 -12.062972 10.520969 -31.819720 9.092344 0.000000 0.000000 0.000000 -2.450923 8.936611 4.337020 -2.079002 -1.011050 27.190884 -4.858891 -0.544351 -2.347808 16.110977 11.651490 23.696312 27.225291 32.959238 -5.081045 0.000000 0.000000 0.000000 
-12.669116 84.486969 5.129787 0.000000 0.000000 0.000000 -5.082129 21.539452 11.704120 -41.137481 19.322709 -5.715006 -2.993537 -20.387698 -0.421019 49.114319 -6.550669 0.073454 -14.962742 -2.298497 9.139612 0.000000 0.000000 0.000000 -5.593502 23.297017 10.417825 19.232530 -2.578253 0.910080 37.399350 -5.848866 -2.028149 9.503845 11.568381 12.275193 -66.362992 5.860772 -0.629824 0.000000 0.000000 0.000000 -4.637100 23.118324 10.632611 3.991950 6.657763 -0.929308 -4.316206 9.390225 5.180964 -1.952735 -4.436164 0.125721 0.000000 0.000000 0.000000 -5.010308 10.339907 4.511832 31.883296 9.898895 -2.902639 3.234445 -0.830880 5.410290 0.000000 0.000000 0.000000 -4.061721 10.960486 4.229939 0.091656 11.506790 -9.235894 1.902717 5.633984 -0.256219 -32.528448 -9.929133 -7.393673 3.689595 -21.804923 8.770613 0.000000 0.000000 0.000000 -4.138777 10.990591 4.460382 -1.684507 1.470040 26.040776 -4.957471 0.253816 -1.772502 17.593341 7.845171 19.976435 29.966833 27.072952 -6.010741 0.000000 0.000000 0.000000 
-14.004365 85.446770 4.264221 0.000000 0.000000 0.000000 -9.390957 29.518718 13.908968 -37.315489 15.349663 -11.167484 -5.874069 -22.787063 0.903647 48.109640 -5.050572 1.134052 -15.813245 -1.553794 5.801719 0.000000 0.000000 0.000000 -9.396023 29.893682 12.078767 21.279529 -2.097903 3.692183 32.386776 -7.535857 -1.450310 16.636515 11.142729 7.197904 -68.756639 9.818669 -3.455163 0.000000 0.000000 0.000000 -5.812000 31.368716 11.192934 3.337178 8.026571 0.151685 -5.576414 11.142244 4.845953 -1.659427 -5.349450 1.766706 0.000000 0.000000 0.000000 -5.369849 11.944405 4.271878 28.338325 11.859424 -6.979839 2.242429 -4.697426 3.180106 0.000000 0.000000 0.000000 -5.080712 12.563673 3.935523 -0.342076 14.401302 -6.716159 1.072702 6.440530 -1.335640 -35.685590 -10.065602 -1.818528 -5.453165 -15.679944 7.368488 0.000000 0.000000 0.000000 -4.896619 12.514360 4.001980 -1.169299 4.249253 23.828483 -6.747572 0.657693 -0.524063 18.018181 4.980706 16.051884 30.841610 23.282018 -5.809816 0.000000 0.000000 0.000000 
-14.787196 86.461777 3.175747 0.000000 0.000000 0.000000 -13.464699 34.731485 15.499776 -36.860277 11.009605 -14.274985 -5.570345 -26.255018 2.151452 48.657977 -6.008678 -0.500212 -16.128230 -0.384529 1.565527 0.000000 0.000000 0.000000 -13.140679 33.772144 13.414751 21.488714 -0.700783 4.847022 28.791068 -8.065242 -1.038637 22.327631 10.009468 5.868013 -69.755807 14.997369 -8.066157 0.000000 0.000000 0.000000 -6.993817 36.964188 11.239323 4.062614 8.806166 0.787674 -5.875990 12.297510 4.356797 0.767781 -6.373466 3.455516 0.000000 0.000000 0.000000 -5.188656 12.915893 3.864263 23.589329 14.931796 -10.512186 -1.738366 -6.075881 0.883309 0.000000 0.000000 0.000000 -5.389941 13.647252 3.530168 -0.570855 16.241421 -5.180862 -1.195646 5.816412 -2.783453 -39.207922 -3.116702 4.109204 -14.856792 -15.623663 4.772403 0.000000 0.000000 0.000000 -4.780881 13.532217 3.206341 -0.478758 7.103828 20.931724 -8.888029 0.548588 1.288919 16.967595 3.580033 11.363363 29.967807 21.957678 -4.674090 0.000000 0.000000 0.000000 
-15.398331 87.477608 2.174343 0.000000 0.000000 0.000000 -16.419876 37.760636 16.129123 -38.039916 8.228087 -15.875846 -3.656850 -28.452517 3.327637 50.144035 -7.830922 -2.668828 -15.772438 0.694902 -2.377057 0.000000 0.000000 0.000000 -16.431395 36.001900 14.188526 20.660914 1.827037 4.981019 27.551048 -7.617714 -0.877413 25.679011 8.826425 6.750757 -67.835581 20.425455 -13.924082 0.000000 0.000000 0.000000 -8.555069 40.428812 11.018182 5.738229 9.023321 1.201461 -5.481266 12.930451 3.915756 3.655133 -7.395903 4.485040 0.000000 0.000000 0.000000 -4.666879 13.365962 3.492635 18.371464 18.848708 -13.014361 -6.791027 -4.441471 -1.342130 0.000000 0.000000 0.000000 -5.339188 14.234896 3.161712 -0.553844 16.966578 -4.991959 -3.857091 3.806747 -3.249413 -43.463659 8.686932 9.624850 -22.915262 -19.535072 0.951044 0.000000 0.000000 0.000000 -4.252384 14.068115 2.399635 0.379074 9.713819 18.171918 -10.709883 -0.595247 2.915262 14.219422 3.901761 6.599389 27.435570 21.822615 -2.531480 0.000000 0.000000 0.000000 
